<?xml version="1.0" encoding="UTF-8" standalone="no"?><!DOCTYPE svg PUBLIC "-//W3C//DTD SVG 1.1//EN" "http://www.w3.org/Graphics/SVG/1.1/DTD/svg11.dtd"><svg width="100%" height="100%" viewBox="0 0 66 65" version="1.1" xmlns="http://www.w3.org/2000/svg" xmlns:xlink="http://www.w3.org/1999/xlink" xml:space="preserve" xmlns:serif="http://www.serif.com/" style="fill-rule:evenodd;clip-rule:evenodd;stroke-linejoin:round;stroke-miterlimit:2;"><path d="M49.676,3.961l0.006,0.004c5.109,3.277 11.507,11.748 11.583,20.139c0.107,11.873 -7.319,25.127 -15.591,28.848c2.115,-5.038 5.712,-9.979 6.582,-15.55c1.076,-4.143 1.648,-8.491 1.648,-12.972c-0,-7.27 -1.506,-14.191 -4.228,-20.469Z" style="fill:url(#_Radial1);"/><path d="M29.277,0.002c-13.956,-0.218 -29.282,12.914 -29.282,30.7c0,19.044 15.27,34.171 33.251,34.295c19.13,0.133 30.799,-14.619 31.907,-34.295c0.598,-10.614 -5.464,-22.657 -15.77,-26.838c5.243,3.081 10.239,12.263 10.317,20.849c0.107,11.873 -5.521,21.327 -13.543,27.82c4.083,-6.024 6.582,-12.562 6.582,-20.539c0,-16.407 -9.507,-31.775 -23.462,-31.992Z" style="fill:#225f6d;"/><defs><radialGradient id="_Radial1" cx="0" cy="0" r="1" gradientUnits="userSpaceOnUse" gradientTransform="matrix(-20.65,16.5633,-16.5624,-20.6512,39.225,14.5804)"><stop offset="0" style="stop-color:#fff;stop-opacity:0"/><stop offset="0.27" style="stop-color:#fff;stop-opacity:0"/><stop offset="0.5" style="stop-color:#fff;stop-opacity:0"/><stop offset="0.72" style="stop-color:#d9f5fb;stop-opacity:0.31"/><stop offset="1" style="stop-color:#84dff2;stop-opacity:1"/></radialGradient></defs></svg>